<svg width="134" height="182" viewBox="0 0 134 182" fill="none" xmlns="http://www.w3.org/2000/svg">
<rect width="134" height="182" fill="#007BFF"/>
<line x1="33" y1="14" x2="33" y2="154" stroke="white" stroke-width="12"/>
<line x1="77" y1="20" x2="27" y2="20" stroke="white" stroke-width="12"/>
<line x1="77" y1="159" x2="27" y2="159" stroke="white" stroke-width="12"/>
<path d="M112.548 87.5355C114.5 85.5829 114.5 82.4171 112.548 80.4645L80.7278 48.6447C78.7751 46.692 75.6093 46.692 73.6567 48.6447C71.7041 50.5973 71.7041 53.7631 73.6567 55.7157L101.941 84L73.6567 112.284C71.7041 114.237 71.7041 117.403 73.6567 119.355C75.6093 121.308 78.7751 121.308 80.7278 119.355L112.548 87.5355ZM58 84V89H109.012V84V79H58V84Z" fill="white"/>
</svg>
